/* XPM */
static char *dummy[]={
"48 48 13 1",
". c None",
"a c None",
"e c #000000",
"# c #000000",
"k c #464646",
"i c #5d5d5d",
"j c #626262",
"g c #828282",
"h c #898989",
"d c #919191",
"f c #b6b6b6",
"c c #c0c0c0",
"b c #ffffff",
"................................................",
"................................................",
"................................................",
"................................................",
"................................................",
"................................................",
"................................................",
"................................................",
"................................................",
"................................................",
"................................................",
"................................................",
"........................#.......................",
"........................##......................",
"........................##......................",
"........................#.......................",
".................aabbbb##bbbbaa.................",
".................abbbcd#cccbbba.................",
".................bbbccd#dcccbba.................",
".................bbbccddccccbba.................",
"..................bbbcccccbbbb..................",
".................bbbbbbbbbbbb...................",
".................bbbbbbbbcccbd..................",
".................bbbbbbbbcccbd..................",
".................bbbbbbbccccbd..................",
".................bbbbbbbbcccbd..................",
"..................bbbbbbbcccbd..................",
"..................bbbbbbbcccb...................",
"..................bbbbbbbcccb...................",
"..................bbbbbbbcccb...................",
"..................bbbbbbccccb...................",
".................abbbbbbccccb...................",
".................abbbbbbccccb...................",
".................bbbbbbbccccb...................",
".................bbbbbbbccccbe..................",
".................bbbbbbcccccbe..................",
".................bbbbbbcccccbd..................",
".................bbbbbbcccccbd..................",
".................bbbbbbcccccbd..................",
".................abbbbbccccdbd..................",
".................abbbbbcccccb...................",
".................abbbbbcccccbbf.................",
".................abbbbbcccccgfbffb..............",
"..................bbbbbcccccgfbbbbb.............",
"..................abbbbbccchifbbbbb.............",
".....................bbbhjkkgffbbbb.............",
".........................ffffffff...............",
"..........................ffffff................"};
